<svg id="type" xmlns="http://www.w3.org/2000/svg" viewBox="0 0 204 204"><defs><style>.cls-1{fill:#fff;}.cls-2{fill:#d98766;}</style></defs><title>DigitalRGB_Bronze_204px</title><circle class="cls-1" cx="102" cy="102" r="102"/><path class="cls-2" d="M108.57,125.77,100,160.4a.89.89,0,0,1-1,.52.87.87,0,0,1-.67-.94l-1.93-35.56-18,11a.87.87,0,0,1-1.08-.28.9.9,0,0,1,0-1.11l8.78-13.72-42.43,4.45a.88.88,0,0,1-1-.68.89.89,0,0,1,.57-1L75.48,109.8l-30.27-5a.88.88,0,0,1-.68-1,.86.86,0,0,1,.93-.75l39.62-2.39L64.79,61.39A.89.89,0,0,1,65,60.23a.88.88,0,0,1,1.18.11L98.43,91.73l8.42-53.87a.89.89,0,0,1,.93-.76.87.87,0,0,1,.83.86l1.81,54.15,11.1-11.82a.9.9,0,0,1,1.07-.18.89.89,0,0,1,.45,1l-.24,12.63,32.85-15a.86.86,0,0,1,1.12.32.89.89,0,0,1-.18,1.16l-33.2,26.57,23.23,12.75a.88.88,0,0,1-.53,1.66l-24.07-.6,24.91,37a70.26,70.26,0,1,0-5,3.76Z"/><path d="M80,192.36l.23-1.16,5.57-4.58a2.56,2.56,0,0,0,.92-1.46A1.66,1.66,0,0,0,85.27,183,1.8,1.8,0,0,0,83,184.63l-1.4-.28a3.12,3.12,0,0,1,3.9-2.55,3.25,3.25,0,0,1,2.43,1.82,2.94,2.94,0,0,1,.16,1.81,3.7,3.7,0,0,1-1.41,2.15L82,191.45l4.84,1-.26,1.26Z"/><path d="M97.19,194.07a3.27,3.27,0,0,1-2.49.77,3.3,3.3,0,0,1-2.35-1.14c-1-1.23-1.11-2.81-.95-5s.48-3.72,1.69-4.78a3.61,3.61,0,0,1,4.84.37c1,1.23,1.12,2.82.95,5S98.4,193,97.19,194.07Zm-.36-9a2.09,2.09,0,0,0-2.77-.21c-1,.83-1.11,2.46-1.22,4s-.28,3.14.6,4.12a2,2,0,0,0,1.35.62,2,2,0,0,0,1.43-.41c1-.83,1.11-2.46,1.22-4S97.72,186.05,96.83,185.08Z"/><path d="M103.21,195l-.06-1.17,4.27-5.82a2.49,2.49,0,0,0,.53-1.64,1.66,1.66,0,0,0-1.92-1.72,1.81,1.81,0,0,0-1.81,2.13l-1.42.07a3.11,3.11,0,0,1,3.15-3.43,3.22,3.22,0,0,1,2.8,1.16,2.78,2.78,0,0,1,.6,1.71,3.7,3.7,0,0,1-.83,2.43l-3.58,4.91,4.93-.24.06,1.29Z"/><path d="M119.85,192.47a3.53,3.53,0,0,1-4.77.81c-1.31-.94-1.77-2.45-2.13-4.58s-.44-3.73.49-5a3.24,3.24,0,0,1,2.22-1.33,3.28,3.28,0,0,1,2.55.52c1.31.94,1.76,2.47,2.13,4.6S120.77,191.15,119.85,192.47Zm-2.52-8.63a2.13,2.13,0,0,0-2.73.47c-.79,1.05-.49,2.65-.23,4.15s.49,3.11,1.58,3.84a1.93,1.93,0,0,0,1.46.27,1.89,1.89,0,0,0,1.28-.74c.79-1.05.48-2.65.23-4.15S118.42,184.57,117.33,183.84Z"/><path d="M40.58,155.31l-.84,1.12a3.73,3.73,0,0,1,3.31,1.17,4.31,4.31,0,0,1,1.26,3.06c0,1.62-1,3-2.45,4.36-1.33,1.25-2.72,2.23-4.45,2.16a4.4,4.4,0,0,1-3-1.4,4.48,4.48,0,0,1-1.31-3.28,3.44,3.44,0,0,1,.94-2.25l1,1.09a2.17,2.17,0,0,0-.57,1.24,2.82,2.82,0,0,0,.89,2.26,2.88,2.88,0,0,0,2.06.92c1.36,0,2.53-1,3.4-1.82s2-2,2-3.35a2.8,2.8,0,0,0-.82-2.06,2.89,2.89,0,0,0-2-1,4,4,0,0,0-2.8,1.28l2.11,2.24-1,.92-3-3.18,4.5-4.24Z"/><path d="M35.27,148c1.47,2.12,1.11,4.33-1.24,6l-6,4.14-.82-1.18,6-4.16c1.5-1,2.06-2.36.93-4s-2.57-1.58-4.07-.53l-6,4.15-.82-1.18,6-4.14C31.61,145.46,33.81,145.9,35.27,148Z"/><path d="M30.67,140.94l-10.13,5.41-.69-1.3L30,139.64Z"/><path d="M24.21,129.4a4.3,4.3,0,0,1,2.17,2.38l1.47,3.72-10.67,4.21L15.71,136a4.35,4.35,0,0,1,0-3.23c.65-1.61,2.17-2.43,3.7-3A6.19,6.19,0,0,1,24.21,129.4Zm-7.28,3.92a2.84,2.84,0,0,0,0,2.18l.93,2.38,8.21-3.23-.95-2.38a2.84,2.84,0,0,0-1.48-1.6c-1.19-.51-2.59,0-3.73.4A5.11,5.11,0,0,0,16.93,133.32Z"/><path d="M23.7,124.07l-11.18,2.64-1.77-7.47,1.3-.3L13.48,125l3.41-.81-1.26-5.33,1.32-.31,1.26,5.32,3.87-.91-1.44-6.07,1.29-.31Z"/><path d="M19.87,106.4a5.31,5.31,0,0,1,.64,6.51,3.78,3.78,0,0,1-2.62,1.48l-.14-1.5a2.6,2.6,0,0,0,1.73-1,3.28,3.28,0,0,0,.51-2.26,3,3,0,0,0-.86-2.07,1.69,1.69,0,0,0-1.39-.45c-.89.08-1.58.71-1.66,2.08,0,.64-.07,1.21-.11,1.83-.1,1.74-.93,3.16-2.75,3.33a3.17,3.17,0,0,1-2.35-.79,4.55,4.55,0,0,1-.58-6,3.49,3.49,0,0,1,2.35-1.33l.14,1.51a2.42,2.42,0,0,0-1.39.69,2.63,2.63,0,0,0-.6,2.09,2.59,2.59,0,0,0,1,2,1.78,1.78,0,0,0,1.28.35c1-.09,1.42-1,1.46-1.86,0-.65.07-1.29.11-1.92.1-1.93,1.14-3.31,3-3.48A3,3,0,0,1,19.87,106.4Z"/><path d="M10.68,98.33l10.13.32,0,1.45-10.12-.32-.11,3.42-1.34,0,.26-8.28,1.34,0Z"/><path d="M22.06,87l-2.82.54-.71,4.93,2.56,1.3-.21,1.44L10.1,89.53l.24-1.67,11.94-2.39Zm-10.42,2,5.61,2.85.58-4Z"/><path d="M24.89,76.13l-5.18.73-.9,3,4.58,1.34L23,82.63,12,79.4l1.26-4.32a3.84,3.84,0,0,1,1.8-2.5,3.23,3.23,0,0,1,2.49-.21,3.09,3.09,0,0,1,1.93,1.47,3.32,3.32,0,0,1,.38,1.55l5.49-.78Zm-10.36-.67-.87,2.93,3.87,1.13.86-2.93c.38-1.3.13-2.39-1.27-2.8S14.91,74.15,14.53,75.46Z"/><path d="M31.4,59.49a3.93,3.93,0,0,1-.45,3l-2.21,4.07L18.65,61.11l2.19-4a3.85,3.85,0,0,1,2.26-2,2.68,2.68,0,0,1,2,.26,2.62,2.62,0,0,1,1.44,2.66,2.9,2.9,0,0,1,3.35-.36A3,3,0,0,1,31.4,59.49ZM22,57.7l-1.51,2.79,3.17,1.72,1.54-2.83a1.73,1.73,0,0,0-.63-2.64A1.84,1.84,0,0,0,22,57.7ZM26.28,60l-1.55,2.86,3.52,1.91,1.54-2.83a2,2,0,0,0-.65-3A2.07,2.07,0,0,0,26.28,60Z"/><path d="M38.86,50.75l-5.12-1.14-1.91,2.54L35.65,55l-.86,1.16-9.19-6.9,2.71-3.6A3.89,3.89,0,0,1,30.87,44a3.22,3.22,0,0,1,2.41.68,3.1,3.1,0,0,1,1.29,2.06,3.27,3.27,0,0,1-.18,1.58l5.42,1.2Zm-9.49-4.27-1.84,2.44,3.23,2.43,1.83-2.45c.82-1.09,1-2.2-.2-3.07S30.19,45.39,29.37,46.48Z"/><path d="M46.39,41.32A4.5,4.5,0,0,1,42,45.66c-1.74,0-3.08-1-4.37-2.32s-2.3-2.66-2.27-4.4a4.5,4.5,0,0,1,4.4-4.34c1.74,0,3.08,1,4.37,2.32S46.42,39.58,46.39,41.32ZM39.74,36a3,3,0,0,0-3,2.94c0,1.35,1.07,2.49,1.91,3.34s2,1.92,3.32,2a3,3,0,0,0,3-2.93C45,40,43.9,38.82,43.06,38S41.09,36.05,39.74,36Z"/><path d="M56.65,34.51l-10-4.17,5.4,7.47L51,38.62l-6.71-9.28,1.31-.95,10,4.2-5.41-7.5,1.12-.81L58,33.57Z"/><path d="M61,31.7l-.67-1.28,2-10.79-5.88,3-.62-1.2,7.41-3.82.67,1.3-2,10.77,6-3.1.62,1.2Z"/><path d="M71.87,26.44,68.06,15.62l7.22-2.54.45,1.25-5.88,2.06L71,19.69l5.15-1.82.45,1.28L71.47,21l1.31,3.74,5.88-2.07.44,1.25Z"/><path d="M95.26,20a4.73,4.73,0,0,1-3.1,1.53,4.78,4.78,0,0,1-3.39-.7,3.79,3.79,0,0,1-1.55-2.59l1.49-.18a2.63,2.63,0,0,0,1,1.71,3.29,3.29,0,0,0,2.28.44,3,3,0,0,0,2-.92,1.67,1.67,0,0,0,.41-1.4c-.1-.88-.75-1.56-2.13-1.6l-1.83-.06c-1.74-.05-3.19-.83-3.41-2.65a3.18,3.18,0,0,1,.73-2.37,4.29,4.29,0,0,1,2.85-1.49,4.34,4.34,0,0,1,3.09.74,3.45,3.45,0,0,1,1.39,2.31l-1.5.18a2.41,2.41,0,0,0-.73-1.36,2.61,2.61,0,0,0-2.11-.55,2.56,2.56,0,0,0-1.92,1,1.82,1.82,0,0,0-.32,1.29,1.7,1.7,0,0,0,1.9,1.4c.65,0,1.29,0,1.93.06,1.93,0,3.34,1.05,3.55,2.85A3,3,0,0,1,95.26,20Z"/><path d="M99.61,20.7l.18-11.47,7.67.12,0,1.33-6.23-.1,0,3.49,5.46.09,0,1.36-5.46-.09-.07,4,6.23.1,0,1.33Z"/><path d="M117.63,22.17l-.53-2.84-4.94-.74-1.31,2.56-1.44-.22,5.71-10.75,1.66.25,2.32,12Zm-1.92-10.45-2.89,5.6,4,.6Z"/><path d="M121.57,23.06l3.12-11,1.38.39-2.76,9.74,5.31,1.51L128.26,25Z"/><path d="M140.45,29.19a4.49,4.49,0,0,1-5.57-2.68c-.6-1.63-.07-3.25.72-4.9S137.32,18.55,139,18a4.47,4.47,0,0,1,5.57,2.67c.6,1.64.08,3.25-.72,4.9S142.1,28.64,140.45,29.19Zm2.75-8a2.84,2.84,0,0,0-1.51-1.68,2.93,2.93,0,0,0-2.25-.13c-1.26.47-2,1.85-2.5,2.93s-1.15,2.5-.72,3.78A3,3,0,0,0,140,27.85c1.27-.47,2-1.85,2.5-2.93S143.63,22.42,143.2,21.14Z"/><path d="M151,24.81,149,27.93l4.46,3L152.67,32l-4.46-3-2.79,4.21-1.21-.8,6.35-9.57L156.77,27l-.74,1.1Z"/><path d="M165.48,36.27l-7,7.33-1.06-1,7-7.34L162,32.91l.93-1,6,5.72-.93,1Z"/><path d="M167.43,53.73l2.38-4.67-2-2.48-3.72,3-.9-1.12,9-7.15L175,44.8a3.86,3.86,0,0,1,1,2.91,3.24,3.24,0,0,1-1.25,2.16,3.06,3.06,0,0,1-2.32.73,3.24,3.24,0,0,1-1.49-.57L168.42,55Zm6.51-8.1L172,43.24l-3.14,2.51,1.9,2.39c.85,1.06,1.88,1.47,3,.57S174.78,46.69,173.94,45.63Z"/><path d="M173.84,63.86l1.87-2.18-2.52-4.31-2.81.58-.74-1.25,12-2.32.86,1.46-7.86,9.31Zm6.92-8-6.17,1.27,2.06,3.5Z"/><path d="M178.39,74.13l6.44-8.66-8.54,3.44-.52-1.29,10.63-4.28.61,1.5-6.48,8.67,8.58-3.45.52,1.29L179,75.63Z"/><path d="M182.79,86.46a4.7,4.7,0,0,1-1.86-2.9,4.78,4.78,0,0,1,.33-3.46,3.8,3.8,0,0,1,2.39-1.82l.35,1.47a2.59,2.59,0,0,0-1.58,1.2,3.21,3.21,0,0,0-.19,2.3,3,3,0,0,0,1.13,1.93,1.7,1.7,0,0,0,1.44.27c.87-.21,1.46-.93,1.36-2.3,0-.64-.1-1.21-.15-1.83-.13-1.73.49-3.25,2.27-3.67a3.14,3.14,0,0,1,2.44.46,4.56,4.56,0,0,1,1.39,5.83A3.51,3.51,0,0,1,190,85.57l-.34-1.47a2.39,2.39,0,0,0,1.28-.88,2.59,2.59,0,0,0,.31-2.15A2.63,2.63,0,0,0,190,79.26a1.85,1.85,0,0,0-1.32-.17,1.72,1.72,0,0,0-1.19,2c.07.65.11,1.29.16,1.93.16,1.92-.68,3.43-2.45,3.84A3,3,0,0,1,182.79,86.46Z"/><path d="M188.66,98.41a3.88,3.88,0,0,1-1.19-2.73l-.23-2.82-4.43.37-.12-1.44,11.43-.94.35,4.24a3.8,3.8,0,0,1-.79,3,3.95,3.95,0,0,1-5,.33Zm4.5-3.25-.23-2.77-4.38.36.23,2.79c.13,1.53.9,2.25,2.43,2.12A2,2,0,0,0,193.16,95.16Z"/><path d="M183,109.46l2.77-.8.25-5-2.67-1,.07-1.46,11.26,4.62-.08,1.69L182.9,111Zm10.2-2.94-5.85-2.32-.2,4.06Z"/><path d="M181.12,120.86l5.1-1.2.61-3.11-4.68-.93.28-1.41,11.25,2.22-.87,4.41a3.87,3.87,0,0,1-1.57,2.66,3.28,3.28,0,0,1-2.46.44,3.08,3.08,0,0,1-2.05-1.3,3.23,3.23,0,0,1-.52-1.5l-5.4,1.28Zm10.39-.28.59-3-3.95-.77-.59,3c-.27,1.34.08,2.39,1.51,2.68S191.24,121.91,191.51,120.58Z"/><path d="M179.62,126.35l10.78,3.88-2.6,7.21-1.25-.45,2.11-5.85L185.38,130l-1.85,5.14-1.28-.46,1.85-5.13-3.72-1.35L178.27,134l-1.25-.45Z"/><path d="M172.11,143.22l10.79-.54-8.11-4.41.67-1.22,10.09,5.48-.77,1.42-10.83.53,8.14,4.42-.67,1.23-10.09-5.48Z"/><path d="M165.66,154.18a4.44,4.44,0,0,1,.87-3.2,4.49,4.49,0,0,1,2.86-1.73c1.72-.26,3.18.6,4.64,1.71s2.68,2.27,2.89,4a4.52,4.52,0,0,1-3.68,4.94,3.92,3.92,0,0,1-2.78-.68l.9-1.18a2.51,2.51,0,0,0,1.66.46,2.78,2.78,0,0,0,1.92-1.14,2.91,2.91,0,0,0,.57-2.19c-.21-1.34-1.43-2.3-2.38-3s-2.21-1.63-3.56-1.47a2.92,2.92,0,0,0-1.95,1.14,2.84,2.84,0,0,0-.57,2.19,2.62,2.62,0,0,0,.94,1.5l-.9,1.18A3.93,3.93,0,0,1,165.66,154.18Z"/><path d="M163.15,162.36l-3.35-3.25,1-1,3.34,3.24,7.57,2-1.12,1.16-6-1.63,1.83,5.94-1.07,1.1Z"/></svg>